<?xml version="1.0" standalone="no"?>
<!DOCTYPE svg PUBLIC "-//W3C//DTD SVG 20010904//EN"
 "http://www.w3.org/TR/2001/REC-SVG-20010904/DTD/svg10.dtd">
<svg version="1.0" xmlns="http://www.w3.org/2000/svg"
 width="72.000000pt" height="72.000000pt" viewBox="0 0 72.000000 72.000000"
 preserveAspectRatio="xMidYMid meet">

<g transform="translate(0.000000,72.000000) scale(0.100000,-0.100000)"
fill="#000000" stroke="none">
<path d="M194 526 l-35 -35 3 -158 3 -158 172 -3 c218 -3 213 -6 213 133 l0
95 -120 0 -120 0 0 -40 0 -40 68 0 c78 0 97 -9 87 -39 -8 -25 -23 -29 -137
-34 l-88 -3 0 99 c0 83 3 102 18 113 12 10 56 13 155 14 l137 0 0 45 0 45
-161 0 -161 0 -34 -34z"/>
</g>
</svg>
